<?xml version="1.0" encoding="UTF-8" standalone="no"?>
<!-- Created with Inkscape (http://www.inkscape.org/) -->

<svg
   xmlns:dc="http://purl.org/dc/elements/1.1/"
   xmlns:cc="http://creativecommons.org/ns#"
   xmlns:rdf="http://www.w3.org/1999/02/22-rdf-syntax-ns#"
   xmlns:svg="http://www.w3.org/2000/svg"
   xmlns="http://www.w3.org/2000/svg"
   xmlns:sodipodi="http://sodipodi.sourceforge.net/DTD/sodipodi-0.dtd"
   xmlns:inkscape="http://www.inkscape.org/namespaces/inkscape"
   width="159.28177mm"
   height="159.28227mm"
   viewBox="0 0 159.28177 159.28227"
   version="1.1"
   id="svg2100"
   inkscape:version="0.92.4 (unknown)"
   sodipodi:docname="healbox.svg">
  <defs
     id="defs2094" />
  <sodipodi:namedview
     id="base"
     pagecolor="#ffffff"
     bordercolor="#666666"
     borderopacity="1.0"
     inkscape:pageopacity="0.0"
     inkscape:pageshadow="2"
     inkscape:zoom="0.35"
     inkscape:cx="-287.56664"
     inkscape:cy="266.72016"
     inkscape:document-units="mm"
     inkscape:current-layer="layer1"
     showgrid="false"
     fit-margin-top="0"
     fit-margin-left="0"
     fit-margin-right="0"
     fit-margin-bottom="0"
     inkscape:window-width="1920"
     inkscape:window-height="1016"
     inkscape:window-x="1920"
     inkscape:window-y="27"
     inkscape:window-maximized="1" />
  <metadata
     id="metadata2097">
    <rdf:RDF>
      <cc:Work
         rdf:about="">
        <dc:format>image/svg+xml</dc:format>
        <dc:type
           rdf:resource="http://purl.org/dc/dcmitype/StillImage" />
        <dc:title></dc:title>
      </cc:Work>
    </rdf:RDF>
  </metadata>
  <g
     inkscape:label="Ebene 1"
     inkscape:groupmode="layer"
     id="layer1"
     transform="translate(-22.41272,-60.120777)">
    <g
       transform="translate(978.21694,-1325.2634)"
       id="g2065"
       inkscape:export-xdpi="96"
       inkscape:export-ydpi="96">
      <g
         id="g2045">
        <g
           id="g2026"
           transform="translate(-251.88333,76.2)">
          <g
             style="fill:#003438;fill-opacity:1"
             id="g1787"
             transform="translate(-443.0784,792.05244)">
            <path
               id="path1785"
               transform="scale(0.26458333)"
               d="m -935.63086,1958.5137 -46.23047,46.2324 v 505.5469 l 46.23047,46.2324 h 180.44141 v -64.6504 h -162.02149 v -468.7109 h 162.02149 v -64.6504 z m 325.10742,0 v 64.6504 H -448.5 v 468.7109 h -162.02344 v 64.6504 h 180.43946 l 46.23242,-46.2324 v -505.5469 l -46.23242,-46.2324 z"
               style="fill:#003438;fill-opacity:1;stroke:none;stroke-width:138.19842529;stroke-miterlimit:4;stroke-dasharray:none;stroke-opacity:1"
               inkscape:connector-curvature="0" />
          </g>
          <g
             transform="translate(-444.13674,790.9941)"
             id="g1799">
            <path
               inkscape:connector-curvature="0"
               style="fill:#01a8b3;fill-opacity:1;stroke:none;stroke-width:138.19842529;stroke-miterlimit:4;stroke-dasharray:none;stroke-opacity:1"
               d="m -935.63086,1958.5137 -46.23047,46.2324 v 505.5469 l 46.23047,46.2324 h 180.44141 v -64.6504 h -162.02149 v -468.7109 h 162.02149 v -64.6504 z m 325.10742,0 v 64.6504 H -448.5 v 468.7109 h -162.02344 v 64.6504 h 180.43946 l 46.23242,-46.2324 v -505.5469 l -46.23242,-46.2324 z"
               transform="scale(0.26458333)"
               id="path1797" />
          </g>
          <g
             transform="translate(4.2333479,218.01672)"
             id="g1973">
            <path
               sodipodi:nodetypes="ccccccccccc"
               style="fill:#9b1511;fill-opacity:1;stroke:none;stroke-width:4.04079485;stroke-miterlimit:4;stroke-dasharray:none;stroke-opacity:1"
               d="m -649.93023,1120.8192 c -16.82768,-10e-5 -30.46926,13.6414 -30.46935,30.4691 0.014,7.4024 2.6632,14.5706 7.55998,20.122 l 10.5388,10.6793 c 3.85529,-15.8287 18.02518,-26.9756 34.31662,-26.9955 16.29161,0.018 29.40446,10.1054 33.26128,25.934 l 10.5358,-10.6761 c 4.89678,-5.5514 5.95848,-11.6613 5.97249,-19.0637 -9e-5,-16.8277 -10.99585,-30.4692 -27.82353,-30.4691 -8.28166,0 -16.2047,3.3769 -21.94604,9.3443 -5.74136,-5.9674 -13.66439,-9.3415 -21.94605,-9.3443 z"
               id="path1955"
               inkscape:connector-curvature="0" />
            <circle
               r="30.631611"
               cy="1190.1666"
               cx="-627.98413"
               id="circle1957"
               style="fill:#f1753a;fill-opacity:1;stroke:none;stroke-width:5.74076653;stroke-miterlimit:4;stroke-dasharray:none;stroke-opacity:1" />
            <path
               inkscape:connector-curvature="0"
               id="path1959"
               d="m -650.98857,1119.7608 c -16.82768,0 -30.46926,13.6414 -30.46935,30.4691 0.014,7.4025 2.6632,14.5706 7.55998,20.1221 l 10.5388,10.6793 a 35.364328,35.364328 0 0 1 34.31662,-26.9955 35.364328,35.364328 0 0 1 34.31961,26.9922 l 10.5358,-10.676 c 4.89678,-5.5515 7.54598,-12.7196 7.55999,-20.1221 -9e-5,-16.8277 -13.64168,-30.4691 -30.46936,-30.4691 -8.28166,0 -16.2047,3.377 -21.94604,9.3444 -5.74136,-5.9674 -13.66439,-9.3415 -21.94605,-9.3444 z"
               style="fill:#e93f3a;fill-opacity:1;stroke:none;stroke-width:4.04079485;stroke-miterlimit:4;stroke-dasharray:none;stroke-opacity:1" />
            <circle
               style="fill:#e93f3a;fill-opacity:1;stroke:none;stroke-width:5.74076653;stroke-miterlimit:4;stroke-dasharray:none;stroke-opacity:1"
               id="circle1961"
               cx="-629.04248"
               cy="1189.1083"
               r="30.631611" />
            <path
               inkscape:connector-curvature="0"
               style="fill:#ab1813;fill-opacity:1;stroke:none;stroke-width:11.23423862;stroke-miterlimit:4;stroke-dasharray:none;stroke-opacity:1"
               d="m -636.30562,1168.7689 v 13.0762 h -13.07617 v 16.6427 h 13.07617 v 13.0764 h 16.64264 v -13.0764 h 13.07643 v -16.6427 h -13.07643 v -13.0762 z"
               id="path1963" />
            <path
               id="path1965"
               d="m -637.36396,1167.7105 v 13.0763 h -13.07617 v 16.6427 h 13.07617 v 13.0764 h 16.64264 v -13.0764 h 13.07643 v -16.6427 h -13.07643 v -13.0763 z"
               style="fill:#ffffff;fill-opacity:1;stroke:none;stroke-width:11.23423862;stroke-miterlimit:4;stroke-dasharray:none;stroke-opacity:1"
               inkscape:connector-curvature="0" />
            <path
               inkscape:connector-curvature="0"
               style="fill:#f0543b;fill-opacity:0.99215686;stroke:none;stroke-width:4.04079485;stroke-miterlimit:4;stroke-dasharray:none;stroke-opacity:1"
               d="m -607.09627,1119.7606 c -8.23433,0 -16.11347,3.3401 -21.84672,9.2439 a 63.367705,63.367705 0 0 1 0.0553,1.5652 63.367705,63.367705 0 0 1 -4.67001,23.7655 35.364327,35.364327 0 0 1 4.51496,-0.2997 35.364327,35.364327 0 0 1 34.31987,26.9927 l 10.53579,-10.6764 c 4.89678,-5.5514 7.54573,-12.7193 7.55975,-20.1218 -8e-5,-16.8276 -13.64125,-30.4695 -30.46894,-30.4694 z"
               id="path1967" />
            <path
               inkscape:connector-curvature="0"
               style="fill:#f0693b;fill-opacity:0.99215686;stroke:none;stroke-width:4.04079485;stroke-miterlimit:4;stroke-dasharray:none;stroke-opacity:1"
               d="m -607.09627,1119.7606 c -1.76453,6e-4 -3.51274,0.1561 -5.22708,0.4552 a 63.367705,63.367705 0 0 1 0.87127,10.3539 63.367705,63.367705 0 0 1 -5.48028,25.6656 35.364327,35.364327 0 0 1 22.20949,24.7929 l 10.53579,-10.6764 c 4.89678,-5.5514 7.54573,-12.7193 7.55975,-20.1218 -8e-5,-16.8276 -13.64125,-30.4695 -30.46894,-30.4694 z"
               id="path1969" />
            <path
               inkscape:connector-curvature="0"
               style="fill:#f0753b;fill-opacity:0.99215686;stroke:none;stroke-width:4.04079485;stroke-miterlimit:4;stroke-dasharray:none;stroke-opacity:1"
               d="m -590.05027,1124.9716 a 63.367705,63.367705 0 0 1 0.29403,5.5981 63.367705,63.367705 0 0 1 -11.76208,36.6929 35.364327,35.364327 0 0 1 6.79545,13.7656 l 10.53579,-10.6764 c 4.89678,-5.5514 7.54573,-12.7193 7.55975,-20.1218 -5e-5,-10.5128 -5.32394,-19.782 -13.42294,-25.2584 z"
               id="path1971" />
          </g>
          <path
             id="rect1981"
             d="m -605.67107,1309.1842 v 17.1054 h 42.86869 v 91.1107 l 17.10492,-17.1049 v -78.8789 l -12.23233,-12.2323 z m -81.1444,71.8767 -17.10542,17.1054 v 57.0095 l 12.23182,12.2323 h 47.74179 v -17.1054 h -42.86819 z m 81.1444,69.2418 v 9.9658 l 9.9658,-9.9658 z"
             style="fill:#0198b3;fill-opacity:1;stroke:none;stroke-width:10.01906776;stroke-miterlimit:4;stroke-dasharray:none;stroke-opacity:1"
             inkscape:connector-curvature="0" />
          <path
             id="rect1979"
             d="m -545.69746,1341.4773 -17.10492,17.1049 v 91.7205 h -42.86869 v 17.1054 h 47.74128 l 12.23233,-12.2323 z m -108.8254,108.8254 -17.10542,17.1054 h 27.681 v -17.1054 z"
             style="fill:#018cb4;fill-opacity:1;stroke:none;stroke-width:10.01906776;stroke-miterlimit:4;stroke-dasharray:none;stroke-opacity:1"
             inkscape:connector-curvature="0" />
        </g>
      </g>
    </g>
  </g>
</svg>
